<svg version="1.2" xmlns="http://www.w3.org/2000/svg" xmlns:xlink="http://www.w3.org/1999/xlink" overflow="visible" preserveAspectRatio="none" viewBox="0 0 161 1448" width="161" height="1448"><g transform="translate(0, 0)"><defs><path id="path-158871074912416299" d="M0 0 C0 0 160.99999999999997 0 160.99999999999997 0 C160.99999999999997 0 160.99999999999997 1447.9999999999973 160.99999999999997 1447.9999999999973 C160.99999999999997 1447.9999999999973 0 1447.9999999999973 0 1447.9999999999973 C0 1447.9999999999973 0 0 0 0 Z" vector-effect="non-scaling-stroke"/><linearGradient id="gradient-158871074914016318" x1="50%" y1="100%" x2="50%" y2="0%" vector-effect="non-scaling-stroke"><stop offset="0%" stop-color="rgb(130,130,130)" stop-opacity="1" vector-effect="non-scaling-stroke"/><stop offset="100%" stop-color="rgb(0,130,130)" stop-opacity="1" vector-effect="non-scaling-stroke"/></linearGradient></defs><g transform="translate(0, 0)"><path d="M0 0 C0 0 160.99999999999997 0 160.99999999999997 0 C160.99999999999997 0 160.99999999999997 1447.9999999999973 160.99999999999997 1447.9999999999973 C160.99999999999997 1447.9999999999973 0 1447.9999999999973 0 1447.9999999999973 C0 1447.9999999999973 0 0 0 0 Z" style="stroke: rgb(140, 140, 140); stroke-width: 0; stroke-linecap: butt; stroke-linejoin: miter; fill: url(&quot;#gradient-158871074914016318&quot;);" vector-effect="non-scaling-stroke"/></g></g></svg>